<svg version="1.2" xmlns="http://www.w3.org/2000/svg" viewBox="0 0 2200 2200" width="2200" height="2200">
	<style>
		.s0 { fill: #1e1e1e } 
	</style>
	<g id="Objects">
		<g>
			<g>
				<path class="s0" d="m1823.41 1351.37c14.57-12.79 36.17 3.72 27.58 21.1-154.05 311.66-501.95 495.52-860 426.95-430.11-82.39-712.02-497.85-629.64-927.98 68.58-358.04 367.97-613.38 714.49-641.37 19.33-1.56 26.69 24.61 9.42 33.42-175.78 89.74-309.79 256.77-349.8 465.63-68.82 359.33 166.69 706.43 526.02 775.24 208.85 40.01 413.58-22.8 561.93-152.99z"/>
				<path class="s0" d="m1400.08 1040.65c-51.37 6.47-63.44 18.54-69.91 69.91-0.49 3.88-6.1 3.88-6.59 0-6.47-51.37-18.54-63.44-69.91-69.91-3.88-0.49-3.88-6.1 0-6.58 51.37-6.48 63.44-18.54 69.91-69.92 0.49-3.87 6.1-3.87 6.59 0 6.47 51.38 18.54 63.44 69.91 69.92 3.87 0.48 3.87 6.09 0 6.58z"/>
				<path class="s0" d="m1767.13 874.2c-103.73 13.07-128.1 37.43-141.16 141.16-0.99 7.82-12.31 7.82-13.3 0-13.07-103.73-37.43-128.09-141.16-141.16-7.82-0.99-7.82-12.31 0-13.3 103.73-13.06 128.09-37.43 141.16-141.16 0.99-7.82 12.31-7.82 13.3 0 13.06 103.73 37.43 128.1 141.16 141.16 7.82 0.99 7.82 12.31 0 13.3z"/>
				<path class="s0" d="m1202.15 754.47c-103.72 13.07-128.09 37.44-141.16 141.16-0.99 7.83-12.31 7.83-13.3 0-13.06-103.72-37.43-128.09-141.16-141.16-7.82-0.98-7.82-12.31 0-13.29 103.73-13.07 128.1-37.44 141.16-141.16 0.99-7.83 12.32-7.83 13.3 0 13.07 103.72 37.44 128.09 141.16 141.16 7.82 0.98 7.82 12.31 0 13.29z"/>
			</g>
		</g>
	</g>
</svg>