<?xml version="1.0" encoding="utf-8"?>
<!-- Generator: Adobe Illustrator 27.5.0, SVG Export Plug-In . SVG Version: 6.00 Build 0)  -->
<svg version="1.1" xmlns="http://www.w3.org/2000/svg" xmlns:xlink="http://www.w3.org/1999/xlink" x="0px" y="0px"
	 viewBox="0 0 2200 2200" style="enable-background:new 0 0 2200 2200;" xml:space="preserve">
<g id="background">
	<rect style="fill:#FFFFFF;" width="2200" height="2200"/>
</g>
<g id="Objects">
	<g>
		<path style="fill:#F4A414;" d="M1543.515,1195.59c-31.469-16.497-70.351-4.361-86.848,27.105
			c-33.388,63.686-89.387,118.675-157.68,154.841c-68.777,36.421-146.217,51.578-218.054,42.67
			c-72.064-8.933-142.272-43.003-197.692-95.934c-55.203-52.724-90.438-119.34-99.216-187.575
			c-4.386-34.089-2.097-69.271,6.801-104.567c8.774-34.807,23.519-68.085,43.824-98.912c41.7-63.307,101.743-108.608,169.07-127.56
			c39.737-11.184,83.258-13.876,125.854-7.787c42.22,6.036,81.74,20.442,114.29,41.66c34.512,22.498,77.695,63.707,87.43,132.269
			c6.054,42.636-0.216,82.175-18.635,117.517c-16.551,31.76-42.338,58.803-74.571,78.205c-58.066,34.951-125.172,38.03-166.984,7.66
			c-20.548-14.924-35.285-43.198-36.673-70.356c-1.11-21.759,5.823-39.503,20.608-52.742c26.471-23.699,28.717-64.37,5.017-90.841
			c-23.698-26.469-64.37-28.715-90.841-5.017c-43.909,39.313-66.383,94.417-63.28,155.162c1.643,32.162,10.65,64.581,26.05,93.753
			c15.694,29.728,37.654,55.366,63.508,74.145c41.021,29.794,91.127,45.403,145.452,45.401c3.172,0,6.369-0.054,9.569-0.16
			c52.798-1.764,106.025-17.937,153.927-46.77c52.525-31.615,94.822-76.216,122.319-128.979
			c30.65-58.814,41.688-126.267,31.921-195.064c-6.714-47.286-23.491-91.016-49.866-129.975
			c-24.338-35.95-56.195-66.9-94.688-91.993c-48.158-31.393-105.678-52.57-166.341-61.244
			c-60.204-8.607-122.075-4.698-178.927,11.305c-97.113,27.336-182.936,91.486-241.656,180.635
			c-28.259,42.901-48.829,89.411-61.137,138.237c-12.856,50.998-16.104,102.284-9.653,152.434
			c25.646,199.358,201.345,369.077,408.693,394.78c18.889,2.341,37.955,3.511,57.122,3.511c31.575,0,63.425-3.174,95.204-9.506
			c49.052-9.773,96.75-26.817,141.769-50.657c44.76-23.703,85.548-53.419,121.23-88.322c36.808-36.004,67.152-76.539,90.189-120.481
			C1587.117,1250.97,1574.981,1212.087,1543.515,1195.59z"/>
		<path style="fill:#F4A414;" d="M1009.951,452.972c3.056,10.015,6.361,19.875,10.678,29.567c22.405,50.658,96.045,51.171,118.807,0
			c2.215-4.928,4.108-9.856,5.833-14.784c14.92-42.909,21.847-88.068,24.875-133.054c0.701-20.064,4.067-39.764-4.222-59.135
			c-4.621-11.083-12.036-21.673-21.877-29.567c-40.729-32.929-108.697-29.528-141.764,14.784
			c-17.416,24.837-13.635,45.977-12.359,73.919C992.536,374.611,998.443,414.363,1009.951,452.972z"/>
		<path style="fill:#F4A414;" d="M481.016,636.69c30.068,26.371,62.354,50.303,97.792,69.467
			c9.242,4.921,18.551,9.556,28.458,13.357c51.663,19.978,104.097-31.731,84.009-84.009c-1.918-5.051-4.064-9.874-6.329-14.578
			c-19.791-40.891-46.825-77.722-76.494-111.672c-13.691-14.683-25.241-30.993-44.8-38.829c-11.104-4.57-23.836-6.814-36.377-5.438
			c-52.084,5.515-97.739,55.981-89.789,110.696C442.734,605.561,460.356,617.834,481.016,636.69z"/>
		<path style="fill:#F4A414;" d="M482.54,1060.564c-4.928-2.215-9.856-4.108-14.784-5.833
			c-42.909-14.92-88.068-21.847-133.054-24.875c-20.064-0.701-39.764-4.067-59.135,4.222c-11.083,4.621-21.673,12.036-29.567,21.877
			c-32.929,40.729-29.528,108.697,14.784,141.764c24.837,17.416,45.977,13.635,73.919,12.359
			c39.908-2.614,79.661-8.521,118.27-20.029c10.015-3.056,19.875-6.361,29.567-10.678
			C533.198,1156.966,533.711,1083.326,482.54,1060.564z"/>
		<path style="fill:#F4A414;" d="M635.504,1508.725c-5.051,1.918-9.874,4.064-14.578,6.329
			c-40.891,19.791-77.722,46.825-111.672,76.494c-14.683,13.691-30.993,25.242-38.829,44.8c-4.57,11.104-6.814,23.836-5.438,36.377
			c5.515,52.084,55.981,97.739,110.696,89.789c29.878-5.247,42.152-22.869,61.007-43.53c26.371-30.068,50.303-62.354,69.467-97.792
			c4.921-9.242,9.556-18.551,13.357-28.458C739.492,1541.071,687.783,1488.637,635.504,1508.725z"/>
		<path style="fill:#F4A414;" d="M1190.049,1747.028c-3.056-10.015-6.361-19.875-10.678-29.567
			c-22.405-50.658-96.045-51.171-118.807,0c-2.215,4.928-4.108,9.856-5.833,14.784c-14.92,42.909-21.847,88.068-24.875,133.053
			c-0.701,20.064-4.067,39.764,4.222,59.135c4.621,11.083,12.036,21.673,21.877,29.567c40.729,32.929,108.697,29.527,141.764-14.784
			c17.416-24.838,13.635-45.976,12.359-73.919C1207.464,1825.389,1201.557,1785.637,1190.049,1747.028z"/>
		<path style="fill:#F4A414;" d="M1718.984,1563.31c-30.068-26.371-62.354-50.303-97.792-69.467
			c-9.243-4.921-18.551-9.556-28.458-13.357c-51.663-19.978-104.097,31.73-84.009,84.009c1.918,5.051,4.064,9.874,6.33,14.578
			c19.791,40.891,46.825,77.722,76.494,111.672c13.691,14.683,25.242,30.993,44.8,38.83c11.104,4.57,23.837,6.814,36.376,5.438
			c52.084-5.515,97.74-55.981,89.789-110.696C1757.266,1594.44,1739.644,1582.166,1718.984,1563.31z"/>
		<path style="fill:#F4A414;" d="M1939.216,1002.28c-24.838-17.416-45.977-13.635-73.919-12.358
			c-39.908,2.614-79.661,8.521-118.27,20.029c-10.015,3.056-19.875,6.361-29.567,10.678c-50.658,22.405-51.171,96.045,0,118.807
			c4.928,2.215,9.856,4.108,14.784,5.833c42.909,14.92,88.068,21.847,133.053,24.875c20.064,0.701,39.764,4.067,59.135-4.222
			c11.083-4.621,21.673-12.036,29.567-21.877C1986.929,1103.315,1983.527,1035.348,1939.216,1002.28z"/>
		<path style="fill:#F4A414;" d="M1564.496,691.275c5.051-1.918,9.874-4.064,14.578-6.329
			c40.891-19.791,77.722-46.825,111.672-76.494c14.683-13.691,30.993-25.241,38.83-44.8c4.57-11.104,6.814-23.836,5.438-36.377
			c-5.515-52.084-55.981-97.739-110.696-89.789c-29.877,5.248-42.152,22.869-61.007,43.53
			c-26.371,30.068-50.303,62.354-69.467,97.792c-4.921,9.242-9.556,18.551-13.357,28.458
			C1460.509,658.929,1512.217,711.363,1564.496,691.275z"/>
	</g>
</g>
</svg>
