<svg version="1.2" xmlns="http://www.w3.org/2000/svg" viewBox="0 0 35 35" width="35" height="35">
	<style>
		.s0 { fill: #dadadb } 
	</style>
	<path class="s0" d="m17.72 0l-1.67 8.59q0.65-0.1 1.32-0.1 0.93 0 1.79 0.18c0 0-1.44-8.67-1.44-8.67zm-6.36 1.1l1.53 8.61q1.34-0.79 2.92-1.08c0 0-4.45-7.53-4.45-7.53zm12.7 0.18l-4.69 7.43q1.57 0.38 2.88 1.26c0 0 1.81-8.69 1.81-8.69zm-18.24 3.14l4.57 7.52q0.96-1.25 2.31-2.1c0 0-6.88-5.42-6.88-5.42zm23.68 0.33l-7.13 5.3q1.33 0.92 2.24 2.25zm-12 4.75q-0.12 0-0.23 0c-4.07-0.04-7.77 3.67-7.65 7.75-0.03 3.45 2.5 6.81 5.91 7.55 3.09 0.76 6.62-0.54 8.32-3.27 1.76-2.64 1.72-6.38-0.25-8.9-1.42-1.9-3.72-3.11-6.1-3.13zm-15.64 0.02l7.05 5.42q0.44-1.56 1.37-2.84c0 0-8.42-2.58-8.42-2.58zm31.46 0.44l-8.67 2.39c0.95 1.4 1.5 3.09 1.5 4.91 0 4.85-3.93 8.77-8.77 8.77-4.5 0-8.2-3.38-8.72-7.74l-8.15 3.86 9.05-0.77-6.25 6.59 8.16-3.98-3.45 8.4 6.17-6.66-0.18 9.08 3.35-8.45 3.11 8.54 0.07-9.08 5.98 6.83-3.21-8.5 8.05 4.21-6.07-6.76 9.03 1.02-8.1-4.11 8.78-2.31-9.03-0.91c0 0 7.35-5.33 7.35-5.33zm-24.44 5.11l-8.88 0.64 8.66 2.54q-0.06-0.49-0.06-0.99 0.01-1.14 0.28-2.19z"/>
</svg>