<svg version="1.2" xmlns="http://www.w3.org/2000/svg" viewBox="0 0 2200 2200" width="2200" height="2200">
	<style>
		.s0 { fill: #222222 } 
		.s1 { fill: #202020 } 
	</style>
	<g id="background">
	</g>
	<g id="Objects">
		<g>
			<g>
				<path class="s0" d="m1823.41 1429.37c14.57-12.79 36.17 3.72 27.58 21.1-154.05 311.66-501.95 495.52-860 426.95-430.11-82.39-712.02-497.85-629.64-927.98 68.58-358.04 367.97-613.38 714.49-641.37 19.33-1.56 26.69 24.61 9.42 33.42-175.78 89.74-309.79 256.77-349.8 465.63-68.82 359.33 166.69 706.43 526.02 775.24 208.85 40.01 413.58-22.8 561.93-152.99z"/>
				<path class="s1" d="m1820.21 580.52c-204.78 25.8-252.89 73.91-278.69 278.69-1.95 15.45-24.31 15.45-26.25 0-25.8-204.78-73.91-252.89-278.69-278.69-15.45-1.95-15.45-24.3 0-26.25 204.78-25.8 252.89-73.91 278.69-278.69 1.95-15.45 24.3-15.45 26.25 0 25.8 204.78 73.91 252.89 278.69 278.69 15.45 1.94 15.45 24.3 0 26.25z"/>
			</g>
		</g>
	</g>
</svg>