<svg version="1.2" xmlns="http://www.w3.org/2000/svg" viewBox="0 0 2200 2200" width="2200" height="2200">
	<style>
		.s0 { fill: #1e1e1e } 
		.s1 { fill: #dadadb } 
	</style>
	<g id="Objects">
		<g>
			<path fill-rule="evenodd" class="s0" d="m1099.92 1516.69c-230.41 0-416.66-186.25-416.66-416.67 0-230.41 186.25-416.66 416.66-416.66 230.42 0 416.67 186.25 416.67 416.66 0 230.42-186.25 416.67-416.67 416.67z"/>
			<path class="s1" d="m1407.67 1100.02c0 169.97-137.78 307.75-307.75 307.75-169.96 0-307.75-137.78-307.75-307.75 0-169.96 137.79-307.74 307.75-307.74q2.43 0 4.84 0.03c-91.43 32.79-156.83 120.23-156.83 222.94 0 130.76 106.01 236.76 236.77 236.76 102.71 0 190.14-65.4 222.93-156.83q0.04 2.42 0.04 4.84z"/>
		</g>
	</g>
</svg>