<svg version="1.2" xmlns="http://www.w3.org/2000/svg" viewBox="0 0 2200 2200" width="2200" height="2200">
	<style>
		.s0 { fill: #f4a414 } 
	</style>
	<g id="background">
	</g>
	<g id="Objects">
		<filter id="f0">
			<feFlood flood-color="#dadadb" flood-opacity="1" />
			<feBlend mode="normal" in2="SourceGraphic"/>
			<feComposite in2="SourceAlpha" operator="in" />
		</filter>
		<g filter="url(#f0)">
			<path class="s0" d="m1543.52 1195.59c-31.47-16.5-70.36-4.36-86.85 27.11-33.39 63.68-89.39 118.67-157.68 154.84-68.78 36.42-146.22 51.57-218.06 42.67-72.06-8.94-142.27-43.01-197.69-95.94-55.2-52.72-90.44-119.34-99.22-187.57-4.38-34.09-2.09-69.27 6.81-104.57 8.77-34.81 23.52-68.08 43.82-98.91 41.7-63.31 101.74-108.61 169.07-127.56 39.74-11.19 83.26-13.88 125.85-7.79 42.22 6.04 81.74 20.44 114.29 41.66 34.52 22.5 77.7 63.71 87.43 132.27 6.06 42.64-0.21 82.18-18.63 117.52-16.55 31.76-42.34 58.8-74.57 78.2-58.07 34.95-125.17 38.03-166.99 7.66-20.54-14.92-35.28-43.2-36.67-70.35-1.11-21.76 5.82-39.51 20.61-52.75 26.47-23.69 28.72-64.37 5.02-90.84-23.7-26.47-64.37-28.71-90.84-5.01-43.91 39.31-66.39 94.41-63.28 155.16 1.64 32.16 10.65 64.58 26.05 93.75 15.69 29.73 37.65 55.37 63.5 74.15 41.02 29.79 91.13 45.4 145.46 45.4q4.76 0 9.56-0.16c52.8-1.77 106.03-17.94 153.93-46.77 52.53-31.62 94.82-76.22 122.32-128.98 30.65-58.82 41.69-126.27 31.92-195.07-6.71-47.28-23.49-91.01-49.86-129.97-24.34-35.95-56.2-66.9-94.69-91.99-48.16-31.4-105.68-52.57-166.34-61.25-60.21-8.61-122.08-4.7-178.93 11.31-97.11 27.33-182.94 91.48-241.66 180.63-28.26 42.9-48.83 89.41-61.13 138.24-12.86 51-16.11 102.28-9.66 152.43 25.65 199.36 201.35 369.08 408.7 394.78 18.88 2.34 37.95 3.51 57.12 3.51 31.57 0 63.42-3.17 95.2-9.5 49.05-9.78 96.75-26.82 141.77-50.66 44.76-23.7 85.55-53.42 121.23-88.32 36.81-36.01 67.15-76.54 90.19-120.48 16.5-31.47 4.36-70.35-27.1-86.85z"/>
			<path class="s0" d="m1009.95 452.97c3.06 10.02 6.36 19.88 10.68 29.57 22.4 50.66 96.04 51.17 118.81 0 2.21-4.93 4.1-9.86 5.83-14.79 14.92-42.9 21.85-88.06 24.87-133.05 0.7-20.06 4.07-39.76-4.22-59.13-4.62-11.09-12.03-21.68-21.87-29.57-40.73-32.93-108.7-29.53-141.77 14.78-17.42 24.84-13.63 45.98-12.36 73.92 2.62 39.91 8.52 79.66 20.03 118.27z"/>
			<path class="s0" d="m481.02 636.69c30.06 26.37 62.35 50.3 97.79 69.47 9.24 4.92 18.55 9.55 28.46 13.35 51.66 19.98 104.09-31.73 84-84.01-1.91-5.05-4.06-9.87-6.32-14.57-19.8-40.89-46.83-77.73-76.5-111.68-13.69-14.68-25.24-30.99-44.8-38.82-11.1-4.57-23.83-6.82-36.37-5.44-52.09 5.51-97.74 55.98-89.79 110.69 5.24 29.88 22.87 42.15 43.53 61.01z"/>
			<path class="s0" d="m482.54 1060.56c-4.93-2.21-9.86-4.1-14.78-5.83-42.91-14.92-88.07-21.85-133.06-24.87-20.06-0.7-39.76-4.07-59.13 4.22-11.09 4.62-21.68 12.03-29.57 21.87-32.93 40.73-29.53 108.7 14.78 141.77 24.84 17.42 45.98 13.63 73.92 12.36 39.91-2.62 79.66-8.52 118.27-20.03 10.02-3.06 19.88-6.36 29.57-10.68 50.66-22.4 51.17-96.04 0-118.81z"/>
			<path class="s0" d="m635.5 1508.72c-5.05 1.92-9.87 4.07-14.57 6.33-40.89 19.79-77.73 46.83-111.68 76.5-14.68 13.69-30.99 25.24-38.82 44.8-4.57 11.1-6.82 23.83-5.44 36.37 5.51 52.09 55.98 97.74 110.69 89.79 29.88-5.24 42.16-22.87 61.01-43.53 26.37-30.06 50.3-62.35 69.47-97.79 4.92-9.24 9.55-18.55 13.35-28.46 19.98-51.66-31.73-104.09-84.01-84.01z"/>
			<path class="s0" d="m1190.05 1747.03c-3.06-10.02-6.36-19.88-10.68-29.57-22.4-50.66-96.04-51.17-118.81 0-2.21 4.93-4.1 9.86-5.83 14.79-14.92 42.9-21.85 88.06-24.87 133.05-0.71 20.06-4.07 39.76 4.22 59.13 4.62 11.09 12.03 21.68 21.87 29.57 40.73 32.93 108.7 29.53 141.77-14.78 17.41-24.84 13.63-45.98 12.36-73.92-2.62-39.91-8.52-79.66-20.03-118.27z"/>
			<path class="s0" d="m1718.98 1563.31c-30.06-26.37-62.35-50.3-97.79-69.47-9.24-4.92-18.55-9.55-28.46-13.35-51.66-19.98-104.09 31.73-84.01 84 1.92 5.06 4.07 9.88 6.33 14.58 19.8 40.89 46.83 77.72 76.5 111.67 13.69 14.69 25.24 31 44.8 38.83 11.1 4.57 23.84 6.82 36.37 5.44 52.09-5.51 97.74-55.98 89.79-110.69-5.24-29.88-22.87-42.15-43.53-61.01z"/>
			<path class="s0" d="m1939.22 1002.28c-24.84-17.42-45.98-13.63-73.92-12.36-39.91 2.62-79.66 8.52-118.27 20.03-10.02 3.06-19.88 6.36-29.57 10.68-50.66 22.4-51.17 96.04 0 118.81 4.93 2.21 9.86 4.1 14.78 5.83 42.91 14.92 88.07 21.85 133.06 24.87 20.06 0.71 39.76 4.07 59.13-4.22 11.09-4.62 21.67-12.03 29.57-21.87 32.93-40.73 29.53-108.7-14.78-141.77z"/>
			<path class="s0" d="m1564.5 691.27c5.05-1.91 9.87-4.06 14.57-6.32 40.9-19.8 77.73-46.83 111.68-76.5 14.68-13.69 30.99-25.24 38.83-44.8 4.57-11.1 6.81-23.83 5.43-36.37-5.51-52.09-55.98-97.74-110.69-89.79-29.88 5.24-42.15 22.87-61.01 43.53-26.37 30.06-50.3 62.35-69.47 97.79-4.92 9.24-9.55 18.55-13.35 28.46-19.98 51.66 31.73 104.09 84.01 84z"/>
		</g>
	</g>
</svg>